<svg width="25" height="25" viewBox="0 0 25 25" fill="none" xmlns="http://www.w3.org/2000/svg">
<path d="M0 4.51389C0 3.31673 0.475569 2.16861 1.32209 1.32209C2.16861 0.475569 3.31673 0 4.51389 0H20.4861C21.6833 0 22.8314 0.475569 23.6779 1.32209C24.5244 2.16861 25 3.31673 25 4.51389V20.4861C25 21.6833 24.5244 22.8314 23.6779 23.6779C22.8314 24.5244 21.6833 25 20.4861 25H4.51389C3.31673 25 2.16861 24.5244 1.32209 23.6779C0.475569 22.8314 0 21.6833 0 20.4861V4.51389ZM13.5417 6.59722C13.5417 6.32095 13.4319 6.056 13.2366 5.86065C13.0412 5.6653 12.7763 5.55556 12.5 5.55556C12.2237 5.55556 11.9588 5.6653 11.7634 5.86065C11.5681 6.056 11.4583 6.32095 11.4583 6.59722V11.4583H6.59722C6.32095 11.4583 6.056 11.5681 5.86065 11.7634C5.6653 11.9588 5.55556 12.2237 5.55556 12.5C5.55556 12.7763 5.6653 13.0412 5.86065 13.2366C6.056 13.4319 6.32095 13.5417 6.59722 13.5417H11.4583V18.4028C11.4583 18.679 11.5681 18.944 11.7634 19.1393C11.9588 19.3347 12.2237 19.4444 12.5 19.4444C12.7763 19.4444 13.0412 19.3347 13.2366 19.1393C13.4319 18.944 13.5417 18.679 13.5417 18.4028V13.5417H18.4028C18.679 13.5417 18.944 13.4319 19.1393 13.2366C19.3347 13.0412 19.4444 12.7763 19.4444 12.5C19.4444 12.2237 19.3347 11.9588 19.1393 11.7634C18.944 11.5681 18.679 11.4583 18.4028 11.4583H13.5417V6.59722Z" fill="#FE0037"/>
</svg>
