<svg width="33" height="36" viewBox="0 0 33 36" fill="none" xmlns="http://www.w3.org/2000/svg">
<path d="M15.6667 28.6667C15.6667 30.5 16.1667 32.2 17.0167 33.6667H4.00002C2.15002 33.6667 0.666687 32.1833 0.666687 30.3333V3.66666C0.666687 2.78261 1.01788 1.93476 1.643 1.30964C2.26812 0.684518 3.11597 0.333328 4.00002 0.333328H5.66669V12L9.83335 9.49999L14 12V0.333328H24C24.8841 0.333328 25.7319 0.684518 26.357 1.30964C26.9822 1.93476 27.3334 2.78261 27.3334 3.66666V18.8167C26.7834 18.7333 26.2334 18.6667 25.6667 18.6667C20.15 18.6667 15.6667 23.15 15.6667 28.6667ZM27.3334 27V22H24V27H19V30.3333H24V35.3333H27.3334V30.3333H32.3334V27H27.3334Z" fill="#FE0037"/>
</svg>
