<svg width="25" height="25" viewBox="0 0 25 25" fill="none" xmlns="http://www.w3.org/2000/svg">
<path d="M4.64063 0.583333C4.78732 0.400391 4.96943 0.253518 5.17443 0.152819C5.37942 0.0521193 5.60244 -1.58344e-05 5.82813 3.60747e-09H19.1719C19.3976 -1.58344e-05 19.6206 0.0521193 19.8256 0.152819C20.0306 0.253518 20.2127 0.400391 20.3594 0.583333L24.4359 5.65667C24.7999 6.10972 25 6.68669 25 7.28333V7.70833C25.0001 8.53329 24.7585 9.33767 24.3091 10.009C23.8597 10.6804 23.2248 11.1852 22.4932 11.4529C21.7617 11.7206 20.97 11.7378 20.2288 11.5021C19.4877 11.2664 18.8341 10.7896 18.3594 10.1383C18.0127 10.6146 17.5685 11 17.0607 11.2649C16.5529 11.5298 15.995 11.6672 15.4297 11.6667C14.8644 11.6673 14.3064 11.53 13.7986 11.265C13.2908 11.0001 12.8466 10.6147 12.5 10.1383C12.1534 10.6147 11.7092 11.0001 11.2014 11.265C10.6936 11.53 10.1356 11.6673 9.57031 11.6667C9.00501 11.6673 8.44707 11.53 7.93924 11.265C7.43142 11.0001 6.9872 10.6147 6.64062 10.1383C6.16592 10.7896 5.51232 11.2664 4.77115 11.5021C4.02999 11.7378 3.23831 11.7206 2.50676 11.4529C1.77521 11.1852 1.14035 10.6804 0.69091 10.009C0.241472 9.33767 -8.53103e-05 8.53329 2.26008e-08 7.70833V7.28333C1.96993e-05 6.68669 0.200088 6.10972 0.564063 5.65667L4.64219 0.581667L4.64063 0.583333ZM7.42188 7.70833C7.42188 8.31612 7.64823 8.89902 8.05114 9.32879C8.45405 9.75856 9.00051 10 9.57031 10C10.1401 10 10.6866 9.75856 11.0895 9.32879C11.4924 8.89902 11.7188 8.31612 11.7188 7.70833C11.7188 7.48732 11.8011 7.27536 11.9476 7.11908C12.0941 6.9628 12.2928 6.875 12.5 6.875C12.7072 6.875 12.9059 6.9628 13.0524 7.11908C13.1989 7.27536 13.2812 7.48732 13.2812 7.70833C13.2812 8.31612 13.5076 8.89902 13.9105 9.32879C14.3134 9.75856 14.8599 10 15.4297 10C15.9995 10 16.546 9.75856 16.9489 9.32879C17.3518 8.89902 17.5781 8.31612 17.5781 7.70833C17.5781 7.48732 17.6604 7.27536 17.8069 7.11908C17.9535 6.9628 18.1522 6.875 18.3594 6.875C18.5666 6.875 18.7653 6.9628 18.9118 7.11908C19.0583 7.27536 19.1406 7.48732 19.1406 7.70833C19.1406 8.31612 19.367 8.89902 19.7699 9.32879C20.1728 9.75856 20.7193 10 21.2891 10C21.8589 10 22.4053 9.75856 22.8082 9.32879C23.2111 8.89902 23.4375 8.31612 23.4375 7.70833V7.28333C23.4375 7.08471 23.371 6.89262 23.25 6.74167L19.1719 1.66667H5.82813L1.75 6.74167C1.62898 6.89262 1.56249 7.08471 1.5625 7.28333V7.70833C1.5625 8.31612 1.78885 8.89902 2.19176 9.32879C2.59467 9.75856 3.14114 10 3.71094 10C4.28074 10 4.8272 9.75856 5.23011 9.32879C5.63302 8.89902 5.85938 8.31612 5.85938 7.70833C5.85937 7.48732 5.94169 7.27536 6.0882 7.11908C6.23471 6.9628 6.43342 6.875 6.64062 6.875C6.84783 6.875 7.04654 6.9628 7.19305 7.11908C7.33956 7.27536 7.42188 7.48732 7.42188 7.70833V7.70833ZM2.34375 12.5C2.55095 12.5 2.74966 12.5878 2.89618 12.7441C3.04269 12.9004 3.125 13.1123 3.125 13.3333V23.3333H4.6875V15C4.6875 14.558 4.85212 14.134 5.14515 13.8215C5.43817 13.5089 5.8356 13.3333 6.25 13.3333H10.9375C11.3519 13.3333 11.7493 13.5089 12.0424 13.8215C12.3354 14.134 12.5 14.558 12.5 15V23.3333H21.875V13.3333C21.875 13.1123 21.9573 12.9004 22.1038 12.7441C22.2503 12.5878 22.449 12.5 22.6562 12.5C22.8635 12.5 23.0622 12.5878 23.2087 12.7441C23.3552 12.9004 23.4375 13.1123 23.4375 13.3333V23.3333H24.2188C24.426 23.3333 24.6247 23.4211 24.7712 23.5774C24.9177 23.7337 25 23.9457 25 24.1667C25 24.3877 24.9177 24.5996 24.7712 24.7559C24.6247 24.9122 24.426 25 24.2188 25H0.78125C0.57405 25 0.375336 24.9122 0.228823 24.7559C0.0823101 24.5996 2.26008e-08 24.3877 2.26008e-08 24.1667C2.26008e-08 23.9457 0.0823101 23.7337 0.228823 23.5774C0.375336 23.4211 0.57405 23.3333 0.78125 23.3333H1.5625V13.3333C1.5625 13.1123 1.64481 12.9004 1.79132 12.7441C1.93784 12.5878 2.13655 12.5 2.34375 12.5V12.5ZM6.25 23.3333H10.9375V15H6.25V23.3333ZM14.0625 15C14.0625 14.558 14.2271 14.134 14.5201 13.8215C14.8132 13.5089 15.2106 13.3333 15.625 13.3333H18.75C19.1644 13.3333 19.5618 13.5089 19.8549 13.8215C20.1479 14.134 20.3125 14.558 20.3125 15V20C20.3125 20.442 20.1479 20.8659 19.8549 21.1785C19.5618 21.4911 19.1644 21.6667 18.75 21.6667H15.625C15.2106 21.6667 14.8132 21.4911 14.5201 21.1785C14.2271 20.8659 14.0625 20.442 14.0625 20V15ZM18.75 15H15.625V20H18.75V15Z" fill="#BFBFBF"/>
</svg>
