<svg width="25" height="25" viewBox="0 0 25 25" fill="none" xmlns="http://www.w3.org/2000/svg">
<path d="M3.37452 5.81535H10.1473V12.6299H3.37452V5.81535ZM12.8327 5.81535H18.251V6.95444H12.8327V5.81535ZM12.8327 11.5108H18.251V12.6499H12.8327V11.5108ZM12.8327 8.65308H18.251V9.79217H12.8327V8.65308ZM3.37452 14.3885H18.2272V15.5276H3.37452V14.3885ZM3.37452 19.944H18.2272V21.0831H3.37452V19.944ZM3.37452 17.0863H18.2272V18.2254H3.37452V17.0863ZM2.9943 0V2.17826H0V25H22.0057V22.8217H25V0H2.9943ZM20.6511 23.8809H1.3308V3.29736H2.9943H4.34886H20.6511V21.6627V22.8018V23.8809ZM23.6692 21.6827H22.0057V2.15827H4.34886V1.13909H23.6692V21.6827Z" fill="#BFBFBF"/>
</svg>
